<svg viewBox="0 0 231 155" version="1.1" xmlns="http://www.w3.org/2000/svg" xmlns:xlink="http://www.w3.org/1999/xlink">
    <g id="Page-1" stroke="none" stroke-width="1" fill="none" fill-rule="evenodd">
        <g id="undraw_version_control_re_mg66" transform="translate(115.194855, 77.706995) scale(1, -1) translate(-115.194855, -77.706995) translate(0.158350, 0.413990)" fill-rule="nonzero">
            <path d="M209.207475,139.07923 L20.7490452,139.07923 C18.6674852,139.076072 16.9806414,136.839345 16.97826,134.07923 L16.97826,86.97914 L18.4865741,86.97914 L18.4865741,134.07923 C18.4879374,135.735335 19.500082,137.077422 20.7490452,137.07923 L209.207475,137.07923 C210.456438,137.077422 211.468583,135.735335 211.469946,134.07923 L211.469946,86.65004 L212.97826,86.65004 L212.97826,134.07923 C212.975879,136.839345 211.289035,139.076072 209.207475,139.07923 L209.207475,139.07923 Z" id="Path" fill="#3F3D56"></path>
            <rect id="Rectangle" fill="#3F3D56" x="17.23851" y="85.97914" width="196" height="2"></rect>
            <circle id="ac293633-0933-4e21-a8aa-bc27ca4fbccc" fill="#3F3D56" cx="68.71806" cy="137.38401" r="17.202"></circle>
            <circle id="a0cd768d-b738-4d4b-9ab3-78ab535c7573" fill="#CCCCCC" cx="158.90501" cy="137.38401" r="17.202"></circle>
            <circle id="b9eb3d2e-31e0-4fe2-be5c-79abb86bc227" fill="#6C63FF" cx="17.202" cy="87.823" r="17.202"></circle>
            <circle id="e92cf92c-058e-415c-ba96-766a57ee18d9" fill="#6C63FF" cx="212.87101" cy="86.823" r="17.202"></circle>
            <path d="M69.62377,86.97914 L67.62377,86.97914 L67.62377,37.61683 C67.6269277,34.8567153 69.8636553,32.6199877 72.62377,32.61683 L121.29857,32.61683 L121.29857,34.61683 L72.62377,34.61683 C70.9676651,34.6186377 69.6255777,35.9607251 69.62377,37.61683 L69.62377,86.97914 Z" id="Path" fill="#3F3D56"></path>
            <g id="Group" transform="translate(127.841650, 35.000000) scale(1, -1) translate(-127.841650, -35.000000) translate(92.841650, 0.000000)">
                <circle id="b5dcbba4-f290-467d-a612-e64d8f6895fb" fill="#6C63FF" cx="35" cy="35" r="35"></circle>
                <path d="M45.4307908,37.8853751 L36.5035001,47.2816558 C36.110887,47.6859438 35.5728448,47.9074401 35.0156183,47.8941734 L34.9859329,47.8941734 C34.4275649,47.9066462 33.8884689,47.6853641 33.4936937,47.2816558 L24.5707604,37.8853751 C24.5410793,37.8506224 24.5070365,37.8202137 24.4771471,37.789805 C23.7357345,36.9770275 23.7776014,35.7044785 24.5707604,34.9444218 C25.4165606,34.1320878 26.7347665,34.1320878 27.5805667,34.9444218 L32.8688982,40.5917472 L32.8688982,26.0303359 C32.9200572,24.8651439 33.8593829,23.9473684 35.0007756,23.9473684 C36.1421683,23.9473684 37.081494,24.8651439 37.132653,26.0303359 L37.132653,40.5917472 L42.4168312,34.9444218 C43.2642295,34.1320794 44.5833924,34.1320794 45.4307908,34.9444218 C45.4606802,34.9748305 45.4903613,35.0052392 45.5244041,35.039992 C46.2637169,35.8535718 46.2219075,37.1243737 45.4307908,37.8853751 Z" id="Path" fill="#FFFFFF"></path>
            </g>
        </g>
    </g>
</svg>
